<svg width="34" height="35" viewBox="0 0 34 35" fill="none" xmlns="http://www.w3.org/2000/svg">
<path d="M8.20318 16.4056V19.0383H14.817V33.2932H0.562012V19.0383V16.4056C0.562012 15.0571 0.658329 13.805 0.850964 12.6492C1.0436 11.472 1.33255 10.3858 1.71782 9.39048C2.10309 8.3952 2.58467 7.50159 3.16258 6.70964C3.74048 5.8963 4.404 5.17927 5.15314 4.55856C6.20192 3.681 7.39519 3.02818 8.73293 2.60011C10.0707 2.17203 11.5208 1.95799 13.0833 1.95799V9.56706C12.2271 9.56706 11.1997 9.85066 10.0011 10.4179C8.80249 10.9851 8.20318 12.981 8.20318 16.4056ZM31.7367 9.56706V1.95799C30.1528 1.95799 28.6974 2.17203 27.3703 2.60011C26.0433 3.02818 24.8554 3.681 23.8066 4.55856C23.036 5.17927 22.3618 5.8963 21.7839 6.70964C21.206 7.50159 20.7244 8.3952 20.3392 9.39048C19.9539 10.3858 19.6649 11.472 19.4723 12.6492C19.2797 13.805 19.1834 15.0571 19.1834 16.4056V33.2932H33.4383V19.0383H26.8245V16.4056C26.8245 12.981 27.4292 10.9851 28.6385 10.4179C29.8478 9.85066 30.8806 9.56706 31.7367 9.56706Z" fill="#4166AE"/>
</svg>
