<svg width="37" height="37" viewBox="0 0 37 37" fill="none" xmlns="http://www.w3.org/2000/svg">
<path d="M29 17.3H8M29 17.3C30.6569 17.3 32 18.6432 32 20.3V29.3C32 30.9569 30.6569 32.3 29 32.3H8C6.34315 32.3 5 30.9569 5 29.3V20.3C5 18.6432 6.34315 17.3 8 17.3M29 17.3V14.3C29 12.6432 27.6569 11.3 26 11.3M8 17.3V14.3C8 12.6432 9.34315 11.3 11 11.3M11 11.3V8.30005C11 6.64319 12.3431 5.30005 14 5.30005H23C24.6569 5.30005 26 6.64319 26 8.30005V11.3M11 11.3H26" stroke="#334155" stroke-width="4" stroke-linecap="round" stroke-linejoin="round"/>
</svg>
