<svg width="44" height="44" viewBox="0 0 44 44" fill="none" xmlns="http://www.w3.org/2000/svg">
<path d="M21.8125 0.617432C33.5 0.617432 43.125 10.2424 43.125 21.9299C43.125 33.7034 33.5 43.2424 21.8125 43.2424C10.0391 43.2424 0.5 33.7034 0.5 21.9299C0.5 10.2424 10.0391 0.617432 21.8125 0.617432ZM20.7812 21.3284L22.3281 18.8362C22.4141 18.5784 22.8438 18.5784 22.9297 18.8362C23.1016 19.094 23.2734 19.1799 23.5312 19.1799H23.875C24.2188 19.1799 24.5625 18.9221 24.5625 18.4924V11.7893C24.5625 11.2737 24.2188 10.844 23.7891 10.5862L22.8438 10.1565C22.3281 9.89868 22.3281 9.21118 22.7578 8.95337L27.0547 5.60181C25.4219 5.08618 23.6172 4.74243 21.8125 4.74243C12.2734 4.74243 4.625 12.4768 4.625 21.9299C4.625 22.8752 4.71094 23.8206 4.79688 24.6799H10.2109C10.5547 24.6799 10.8984 24.594 11.1562 24.3362L12.875 22.6174C13.2188 22.2737 13.7344 22.4456 13.9062 22.7893L15.8828 26.7424C16.1406 27.1721 16.5703 27.4299 17.0859 27.4299H17.6875C18.375 27.4299 19.0625 26.8284 19.0625 26.0549V25.2815C19.0625 24.9377 18.8906 24.594 18.6328 24.3362L18.1172 23.8206C17.8594 23.5627 17.8594 23.1331 18.1172 22.8752L18.6328 22.3596C18.8906 22.1018 19.2344 21.9299 19.5781 21.9299C20.0938 21.9299 20.5234 21.7581 20.7812 21.3284ZM35.5625 30.7815H35.4766V28.6331C35.4766 28.2893 35.3906 27.9456 35.1328 27.6877L34.1016 26.6565C33.9297 26.5706 33.9297 26.3987 33.9297 26.1409V25.1096C33.9297 24.8518 33.7578 24.7659 33.5859 24.7659H32.9844C32.8984 24.7659 32.7266 24.8518 32.7266 24.9377L32.2969 26.2268C32.2969 26.3987 32.125 26.4846 32.0391 26.4846H31.6953C31.5234 26.4846 31.4375 26.3987 31.3516 26.2268L30.9219 25.1096C30.8359 24.8518 30.5781 24.7659 30.2344 24.7659H29.2031C29.1172 24.7659 28.9453 24.7659 28.8594 24.8518L26.7969 26.3127C26.625 26.3987 26.4531 26.4846 26.2812 26.5706L22.9297 27.9456C22.6719 28.0315 22.5 28.2893 22.5 28.5471V29.4065C22.5 29.6643 22.5859 29.8362 22.6719 29.9221L23.7031 30.9534C23.9609 31.2112 24.3047 31.3831 24.7344 31.3831H25.5938C25.6797 31.3831 25.7656 31.2971 25.9375 31.2971L27.7422 30.8674C27.9141 30.7815 28.0859 30.7815 28.3438 30.7815C28.9453 30.7815 29.5469 31.0393 29.8906 31.469L31.0078 32.5862C31.2656 32.844 31.6953 32.9299 32.0391 32.9299H33.3281C33.6719 32.9299 34.0156 32.844 34.2734 32.5862L35.1328 31.7268C35.3906 31.469 35.5625 31.1252 35.5625 30.7815Z" fill="white"/>
</svg>
