<svg width="42" height="45" viewBox="0 0 42 45" fill="none" xmlns="http://www.w3.org/2000/svg">
<path d="M39.0469 7.14868C40.5938 7.83618 41.625 9.29712 41.625 10.9299C41.625 30.0081 29.9375 40.5784 22.5469 43.6721C21.5156 44.1018 20.3984 44.1018 19.3672 43.6721C10.1719 39.8049 0.375 28.0315 0.375 10.9299C0.375 9.29712 1.32031 7.83618 2.86719 7.14868L19.3672 0.273682C19.8828 0.101807 20.3984 0.0158691 21 0.0158691C21.5156 0.0158691 22.0312 0.101807 22.5469 0.273682L39.0469 7.14868ZM21 38.344C28.9922 34.3049 35.7812 24.8518 36.0391 11.8752L21 5.60181V38.344Z" fill="white"/>
</svg>
